<?xml version="1.0" standalone="no"?>
<!DOCTYPE svg PUBLIC "-//W3C//DTD SVG 20010904//EN"
 "http://www.w3.org/TR/2001/REC-SVG-20010904/DTD/svg10.dtd">
<svg version="1.0" xmlns="http://www.w3.org/2000/svg"
 width="16.000000pt" height="16.000000pt" viewBox="0 0 16.000000 16.000000"
 preserveAspectRatio="xMidYMid meet">
<metadata>
Created by potrace 1.11, written by Peter Selinger 2001-2013
</metadata>
<g transform="translate(0.000000,16.000000) scale(0.003125,-0.003125)"
fill="#000000" stroke="none">
<path d="M777 4579 c-94 -22 -188 -104 -223 -194 -18 -49 -19 -100 -19 -1835
l0 -1785 28 -57 c32 -65 97 -128 178 -173 l54 -30 1765 0 1765 0 54 30 c81 45
146 108 178 173 l28 57 0 1795 0 1795 -27 52 c-36 68 -90 120 -158 152 l-55
26 -1765 2 c-1009 0 -1781 -3 -1803 -8z m1546 -1202 c147 -375 323 -824 392
-997 l124 -315 -156 -3 c-86 -1 -160 1 -163 5 -4 5 -45 108 -91 231 l-84 222
-435 -2 -434 -3 -86 -227 -85 -228 -157 0 c-87 0 -158 3 -158 7 0 8 57 154
395 1013 188 477 274 695 376 958 8 21 12 22 151 22 l143 0 268 -683z m1814
-853 c-77 -82 -1451 -1454 -1456 -1454 -3 0 -180 174 -393 387 l-388 388 107
107 108 108 282 -282 283 -283 622 622 623 623 107 -107 c59 -59 106 -108 105
-109z"/>
<path d="M1903 3650 c-75 -190 -304 -813 -300 -816 2 -2 144 -3 314 -2 l310 3
-153 410 c-85 226 -156 415 -158 420 -2 6 -8 -1 -13 -15z"/>
</g>
</svg>
