<?xml version="1.0" standalone="no"?>
<!DOCTYPE svg PUBLIC "-//W3C//DTD SVG 20010904//EN"
 "http://www.w3.org/TR/2001/REC-SVG-20010904/DTD/svg10.dtd">
<svg version="1.0" xmlns="http://www.w3.org/2000/svg"
 width="16.000000pt" height="16.000000pt" viewBox="0 0 16.000000 16.000000"
 preserveAspectRatio="xMidYMid meet">
<metadata>
Created by potrace 1.11, written by Peter Selinger 2001-2013
</metadata>
<g transform="translate(0.000000,16.000000) scale(0.003125,-0.003125)"
fill="#000000" stroke="none">
<path d="M1663 4153 c-12 -32 -44 -114 -71 -183 -27 -69 -97 -246 -155 -395
-58 -148 -179 -454 -267 -680 -89 -225 -186 -473 -216 -550 -30 -77 -59 -149
-64 -160 -6 -11 -16 -38 -24 -60 -8 -22 -21 -57 -30 -77 l-16 -38 178 0 178 0
95 253 95 252 478 0 478 0 45 -120 c25 -66 51 -133 58 -150 7 -16 30 -76 50
-132 l38 -103 178 0 179 0 -9 23 c-5 12 -86 218 -180 457 -94 239 -175 444
-180 455 -5 11 -37 92 -71 180 -33 88 -65 169 -70 180 -5 11 -25 61 -44 110
-42 111 -243 622 -255 650 -5 11 -20 48 -33 83 l-23 62 -160 0 -161 0 -21 -57z
m279 -618 c48 -126 123 -328 168 -448 45 -121 79 -221 76 -224 -7 -7 -675 -7
-682 0 -5 4 134 388 166 462 8 17 152 405 166 444 3 8 8 10 13 5 4 -5 46 -112
93 -239z"/>
<path d="M3777 2472 c-158 -158 -467 -467 -686 -686 l-400 -400 -310 312 -310
312 -116 -117 c-64 -63 -114 -120 -113 -125 2 -5 194 -201 428 -434 l424 -424
58 57 c55 55 1538 1539 1547 1548 2 3 -50 58 -116 124 l-120 119 -286 -286z"/>
</g>
</svg>
